<svg xmlns="http://www.w3.org/2000/svg" width="24.658" height="20" viewBox="0 0 24.658 20"><defs><style>.a{fill:#713d08;fill-rule:evenodd;}</style></defs><path class="a" d="M45.808,22A14.256,14.256,0,0,0,60.192,7.616V6.932a11.135,11.135,0,0,0,2.466-2.6,11.372,11.372,0,0,1-2.877.822,5.33,5.33,0,0,0,2.192-2.74,12.565,12.565,0,0,1-3.151,1.233A4.892,4.892,0,0,0,55.123,2a5.147,5.147,0,0,0-5.068,5.068,2.671,2.671,0,0,0,.137,1.1A14.163,14.163,0,0,1,39.781,2.822a5.246,5.246,0,0,0-.685,2.6,5.443,5.443,0,0,0,2.192,4.247,4.618,4.618,0,0,1-2.329-.685h0a5.006,5.006,0,0,0,4.11,4.932,4.223,4.223,0,0,1-1.37.137,2.331,2.331,0,0,1-.959-.137,5.19,5.19,0,0,0,4.795,3.562,10.343,10.343,0,0,1-6.3,2.192A3.793,3.793,0,0,1,38,19.534,12.93,12.93,0,0,0,45.808,22" transform="translate(-38 -2)"/></svg>